<svg width="23" height="23" viewBox="0 0 23 23" fill="none" xmlns="http://www.w3.org/2000/svg">
<path d="M11.5 15.0938C13.4848 15.0938 15.0938 13.4848 15.0938 11.5C15.0938 9.51523 13.4848 7.90625 11.5 7.90625C9.51523 7.90625 7.90625 9.51523 7.90625 11.5C7.90625 13.4848 9.51523 15.0938 11.5 15.0938Z" stroke="black" stroke-linecap="round" stroke-linejoin="round"/>
<path d="M15.4531 3.23438H7.54688C5.16515 3.23438 3.23438 5.16515 3.23438 7.54688V15.4531C3.23438 17.8349 5.16515 19.7656 7.54688 19.7656H15.4531C17.8349 19.7656 19.7656 17.8349 19.7656 15.4531V7.54688C19.7656 5.16515 17.8349 3.23438 15.4531 3.23438Z" stroke="black" stroke-linecap="round" stroke-linejoin="round"/>
<path d="M16.1719 7.54688C16.5688 7.54688 16.8906 7.22508 16.8906 6.82812C16.8906 6.43117 16.5688 6.10938 16.1719 6.10938C15.7749 6.10938 15.4531 6.43117 15.4531 6.82812C15.4531 7.22508 15.7749 7.54688 16.1719 7.54688Z" fill="black"/>
</svg>
