<svg width="64" height="64" viewBox="0 0 64 64" fill="none" xmlns="http://www.w3.org/2000/svg">
<path opacity="0.2" d="M50.6014 41.0209C45.2472 51.0712 35.1912 54.9549 32.614 55.8093C32.2161 55.9463 31.7838 55.9463 31.3859 55.8093C28.8088 54.9549 18.7526 51.0712 13.3984 41.0207L13.3992 41.0205L32 28L50.6005 41.0204L50.6014 41.0209Z" fill="#355DFB"/>
<path d="M10 26.6667V12C10 11.4696 10.2107 10.9609 10.5858 10.5858C10.9609 10.2107 11.4696 10 12 10H52C52.5304 10 53.0391 10.2107 53.4142 10.5858C53.7893 10.9609 54 11.4696 54 12V26.6667C54 47.6705 36.1735 54.6292 32.6141 55.8093C32.2161 55.9463 31.7839 55.9463 31.386 55.8093C27.8265 54.6292 10 47.6705 10 26.6667Z" stroke="#355DFB" stroke-linecap="round" stroke-linejoin="round"/>
<path d="M50.6007 41.0205L32.0002 28L13.3994 41.0205" stroke="#355DFB" stroke-linecap="round" stroke-linejoin="round"/>
</svg>
